<?xml version="1.0" encoding="utf-8"?>
<!-- Generator: Adobe Illustrator 26.0.1, SVG Export Plug-In . SVG Version: 6.00 Build 0)  -->
<svg version="1.1" id="Capa_1" xmlns="http://www.w3.org/2000/svg" xmlns:xlink="http://www.w3.org/1999/xlink" x="0px" y="0px"
	 viewBox="0 0 527.82 456.86" style="enable-background:new 0 0 527.82 456.86;" xml:space="preserve">
<style type="text/css">
	.st0{fill:var(--subtext-color);stroke:var(--subtext-color);stroke-width:20;stroke-miterlimit:10;}
	.st1{fill:var(--background-color);stroke:var(--background-color);}
	.st2{fill:#C15133;}
	.st3{fill:#DEB149;}
	.st4{fill:#8CB256;}
	.st5{fill:#BD632F;}
	.st6{fill:#D8973C;}
</style>
<path class="st0" d="M466.53,423.25H59.66c-14.14,0-25.61-11.47-25.61-25.61V62.12c0-14.14,11.47-25.61,25.61-25.61h406.87
	c14.14,0,25.61,11.47,25.61,25.61v335.52C492.14,411.79,480.67,423.25,466.53,423.25z"/>
<path class="st1" d="M492.14,108.55V62.78c0-14.14-11.47-25.61-25.61-25.61H59.66c-14.14,0-25.61,11.47-25.61,25.61v45.76H492.14z"
	/>
<circle class="st2" cx="346.01" cy="73.86" r="18.42"/>
<circle class="st3" cx="396.36" cy="73.86" r="18.42"/>
<circle class="st4" cx="446.15" cy="73.86" r="18.42"/>
<rect x="54.92" y="148.72" class="st5" width="280.51" height="29.88"/>
<rect x="54.92" y="253.29" class="st5" width="113" height="29.88"/>
<rect x="409.26" y="253.29" class="st5" width="67.37" height="29.88"/>
<rect x="296.25" y="200.01" class="st5" width="180.38" height="29.88"/>
<rect x="351.2" y="148.72" class="st6" width="125.43" height="29.88"/>
<rect x="54.92" y="300.6" class="st5" width="280.51" height="29.88"/>
<rect x="351.2" y="300.6" class="st6" width="125.43" height="29.88"/>
<rect x="181.9" y="253.29" class="st6" width="213.78" height="29.88"/>
<rect x="54.92" y="201.01" class="st6" width="226.01" height="29.88"/>
<rect x="296.89" y="347.9" class="st5" width="180.38" height="29.88"/>
<rect x="55.55" y="348.9" class="st6" width="226.01" height="29.88"/>
</svg>
