<?xml version="1.0" encoding="iso-8859-1"?>
<!-- Generator: Adobe Illustrator 19.0.0, SVG Export Plug-In . SVG Version: 6.00 Build 0)  -->
<svg xmlns="http://www.w3.org/2000/svg" xmlns:xlink="http://www.w3.org/1999/xlink" version="1.1" id="Layer_1" x="0px" y="0px" viewBox="0 0 512.002 512.002" style="enable-background:new 0 0 512.002 512.002;" xml:space="preserve">
<g>
	<g>
		<g>
			<path fill="var(--background-color)" d="M401.335,204.679H277.661l10.746-187.034c1.003-17.448-22.221-24.449-31.059-9.421L96.275,282.14     c-6.54,11.121,1.504,25.159,14.391,25.159h123.675l-10.747,187.034c-1.003,17.45,22.19,24.502,31.059,9.421l161.074-273.916     C422.267,218.715,414.223,204.679,401.335,204.679z"/>
			<path fill="var(--background-color)" d="M104.941,401.046l-29.256,29.256c-6.52,6.52-6.52,17.091,0,23.611c6.519,6.52,17.091,6.521,23.611,0l29.256-29.256     c6.52-6.52,6.52-17.09,0-23.611C122.033,394.525,111.461,394.525,104.941,401.046z"/>
			<path fill="var(--background-color)" d="M104.941,126.341c6.519,6.52,17.09,6.521,23.611,0c6.52-6.52,6.52-17.09,0-23.611L99.296,73.475     c-6.519-6.52-17.091-6.52-23.611,0s-6.52,17.09,0,23.611L104.941,126.341z"/>
			<path fill="var(--background-color)" d="M407.06,401.046c-6.519-6.52-17.091-6.52-23.611,0c-6.52,6.52-6.52,17.091,0,23.611l29.256,29.256     c6.519,6.52,17.09,6.521,23.611,0c6.52-6.52,6.52-17.091,0-23.611L407.06,401.046z"/>
			<path fill="var(--background-color)" d="M407.06,126.341l29.256-29.256c6.52-6.52,6.52-17.091,0-23.611c-6.519-6.52-17.091-6.52-23.611,0L383.45,102.73     c-6.52,6.52-6.52,17.09,0,23.611C389.968,132.86,400.54,132.861,407.06,126.341z"/>
		</g>
	</g>
</g>
<g>
</g>
<g>
</g>
<g>
</g>
<g>
</g>
<g>
</g>
<g>
</g>
<g>
</g>
<g>
</g>
<g>
</g>
<g>
</g>
<g>
</g>
<g>
</g>
<g>
</g>
<g>
</g>
<g>
</g>
</svg>
